<?xml version="1.0" encoding="UTF-8" standalone="no"?>
<svg
   xmlns:dc="http://purl.org/dc/elements/1.1/"
   xmlns:cc="http://creativecommons.org/ns#"
   xmlns:rdf="http://www.w3.org/1999/02/22-rdf-syntax-ns#"
   xmlns:svg="http://www.w3.org/2000/svg"
   xmlns="http://www.w3.org/2000/svg"
   xmlns:sodipodi="http://sodipodi.sourceforge.net/DTD/sodipodi-0.dtd"
   xmlns:inkscape="http://www.inkscape.org/namespaces/inkscape"
   sodipodi:docname="rrr-not-tall.svg"
   inkscape:version="1.0 (4035a4fb49, 2020-05-01)"
   id="svg8"
   version="1.1"
   viewBox="0 0 1280 320"
   height="320mm"
   width="1280mm">
  <defs
     id="defs2">
    <rect
       id="rect12"
       height="141.39922"
       width="639.09113"
       y="62.747509"
       x="-185.6974" />
    <rect
       x="-185.6974"
       y="62.747509"
       width="639.09113"
       height="141.39922"
       id="rect12-7" />
    <rect
       x="-185.6974"
       y="62.747509"
       width="639.09113"
       height="141.39922"
       id="rect27" />
  </defs>
  <sodipodi:namedview
     inkscape:guide-bbox="true"
     showguides="true"
     inkscape:window-maximized="0"
     inkscape:window-y="25"
     inkscape:window-x="0"
     inkscape:window-height="1055"
     inkscape:window-width="1920"
     fit-margin-right="10"
     fit-margin-bottom="10"
     fit-margin-left="10"
     fit-margin-top="10"
     showgrid="false"
     inkscape:document-rotation="0"
     inkscape:current-layer="layer1"
     inkscape:document-units="mm"
     inkscape:cy="1430.3655"
     inkscape:cx="3271.0138"
     inkscape:zoom="0.175"
     inkscape:pageshadow="2"
     inkscape:pageopacity="0.0"
     borderopacity="1.0"
     bordercolor="#666666"
     pagecolor="#ffffff"
     id="base">
    <sodipodi:guide
       id="guide48"
       orientation="0,-1"
       position="-300.86904,159.73809" />
    <sodipodi:guide
       id="guide50"
       orientation="1,0"
       position="641.0476,-380.01189" />
  </sodipodi:namedview>
  <metadata
     id="metadata5">
    <rdf:RDF>
      <cc:Work
         rdf:about="">
        <dc:format>image/svg+xml</dc:format>
        <dc:type
           rdf:resource="http://purl.org/dc/dcmitype/StillImage" />
        <dc:title></dc:title>
      </cc:Work>
    </rdf:RDF>
  </metadata>
  <g
     transform="translate(161.36058,142.08129)"
     id="layer1"
     inkscape:groupmode="layer"
     inkscape:label="Layer 1">
    <g
       style="font-style:normal;font-weight:normal;font-size:11.2889px;line-height:1.25;font-family:sans-serif;white-space:pre;shape-inside:url(#rect12);fill:#000000;fill-opacity:1;stroke:none"
       id="text10"
       transform="matrix(3.8580088,0,0,3.8580088,562.23273,-379.60789)"
       aria-label="Read Route Record" />
    <g
       id="g120"
       transform="matrix(2.5644666,0,0,2.5644666,278.64107,284.31146)">
      <path
         d="m -181.24895,68.850006 q 0.24253,0.04961 0.41892,0.231511 0.1819,0.176389 0.44097,0.694532 l 1.48829,2.960029 h -1.78594 l -0.99219,-2.078084 q -0.0441,-0.08819 -0.11576,-0.242535 -0.43546,-0.931555 -1.02526,-0.931555 h -0.51814 v 3.252174 h -1.62609 v -8.229653 h 2.34818 q 1.5875,0 2.27652,0.562241 0.69453,0.56224 0.69453,1.830036 0,0.848873 -0.41341,1.350479 -0.41341,0.501606 -1.19062,0.600825 z m -2.08911,-2.976565 v 2.243448 h 0.76619 q 0.66697,0 0.9536,-0.259071 0.29215,-0.264584 0.29215,-0.865409 0,-0.600825 -0.28664,-0.859897 -0.28663,-0.259071 -0.95911,-0.259071 z"
         style="font-style:normal;font-variant:normal;font-weight:bold;font-stretch:normal;font-size:11.2889px;line-height:1.25;font-family:'DejaVu Sans Mono';-inkscape-font-specification:'DejaVu Sans Mono Bold';white-space:pre;shape-inside:url(#rect12);fill:#000000;fill-opacity:1;stroke:none"
         id="path65"
         transform="matrix(3.8580089,0,0,3.8580089,562.23274,-379.60789)" />
      <path
         d="m -172.82638,72.432909 q -0.56224,0.231511 -1.14652,0.347266 -0.58429,0.115755 -1.23473,0.115755 -1.54891,0 -2.37023,-0.826823 -0.8158,-0.832336 -0.8158,-2.392277 0,-1.510331 0.78824,-2.386765 0.78824,-0.876433 2.14974,-0.876433 1.37253,0 2.1277,0.8158 0.76068,0.810287 0.76068,2.287545 v 0.655947 h -4.18373 q 0.006,0.727605 0.42995,1.085895 0.42443,0.358291 1.26779,0.358291 0.55673,0 1.09692,-0.159853 0.54019,-0.159852 1.12999,-0.507118 z m -1.36701,-3.47266 q -0.011,-0.63941 -0.33073,-0.964627 -0.31419,-0.33073 -0.93156,-0.33073 -0.55672,0 -0.88745,0.341754 -0.33073,0.336242 -0.39137,0.959116 z"
         style="font-style:normal;font-variant:normal;font-weight:bold;font-stretch:normal;font-size:11.2889px;line-height:1.25;font-family:'DejaVu Sans Mono';-inkscape-font-specification:'DejaVu Sans Mono Bold';white-space:pre;shape-inside:url(#rect12);fill:#000000;fill-opacity:1;stroke:none"
         id="path67"
         transform="matrix(3.8580089,0,0,3.8580089,562.23274,-379.60789)" />
      <path
         d="m -168.24577,69.836683 q -0.904,0 -1.26229,0.23151 -0.35829,0.231511 -0.35829,0.793751 0,0.418924 0.24805,0.666971 0.24805,0.248047 0.67248,0.248047 0.63941,0 0.99219,-0.479557 0.35278,-0.48507 0.35278,-1.350479 v -0.110243 z m 2.24896,-0.622874 v 3.522269 h -1.60404 v -0.68902 q -0.29214,0.4079 -0.74965,0.628386 -0.45751,0.220486 -1.00873,0.220486 -1.05282,0 -1.64262,-0.556728 -0.58429,-0.556728 -0.58429,-1.554428 0,-1.080383 0.70004,-1.593014 0.70005,-0.518143 2.16628,-0.518143 h 1.11897 v -0.270096 q 0,-0.391363 -0.28663,-0.589801 -0.28112,-0.203949 -0.83234,-0.203949 -0.57877,0 -1.12448,0.148828 -0.54019,0.143316 -1.12999,0.463021 v -1.378039 q 0.53468,-0.220487 1.08589,-0.325218 0.55122,-0.104731 1.16858,-0.104731 1.50482,0 2.11116,0.61185 0.61185,0.611849 0.61185,2.188327 z"
         style="font-style:normal;font-variant:normal;font-weight:bold;font-stretch:normal;font-size:11.2889px;line-height:1.25;font-family:'DejaVu Sans Mono';-inkscape-font-specification:'DejaVu Sans Mono Bold';white-space:pre;shape-inside:url(#rect12);fill:#000000;fill-opacity:1;stroke:none"
         id="path69"
         transform="matrix(3.8580089,0,0,3.8580089,562.23274,-379.60789)" />
      <path
         d="m -160.94768,67.438894 v -3.279735 h 1.60955 v 8.576919 h -1.60955 V 71.82106 q -0.25907,0.534679 -0.67248,0.804775 -0.4079,0.270095 -0.96463,0.270095 -1.05833,0 -1.64262,-0.848872 -0.58429,-0.848872 -0.58429,-2.392277 0,-1.565453 0.5898,-2.403301 0.59532,-0.837848 1.69224,-0.837848 0.49609,0 0.88745,0.259072 0.39688,0.253559 0.69453,0.76619 z m -2.24896,2.226912 q 0,0.892969 0.29766,1.400088 0.29766,0.507118 0.82131,0.507118 0.52366,0 0.82683,-0.507118 0.30316,-0.507119 0.30316,-1.400088 0,-0.89297 -0.30316,-1.400089 -0.30317,-0.507118 -0.82683,-0.507118 -0.52365,0 -0.82131,0.507118 -0.29766,0.507119 -0.29766,1.400089 z"
         style="font-style:normal;font-variant:normal;font-weight:bold;font-stretch:normal;font-size:11.2889px;line-height:1.25;font-family:'DejaVu Sans Mono';-inkscape-font-specification:'DejaVu Sans Mono Bold';white-space:pre;shape-inside:url(#rect12);fill:#000000;fill-opacity:1;stroke:none"
         id="path71"
         transform="matrix(3.8580089,0,0,3.8580089,562.23274,-379.60789)" />
      <path
         d="m -147.2665,68.850006 q 0.24254,0.04961 0.41893,0.231511 0.1819,0.176389 0.44097,0.694532 l 1.48828,2.960029 h -1.78594 l -0.99219,-2.078084 q -0.0441,-0.08819 -0.11575,-0.242535 -0.43546,-0.931555 -1.02526,-0.931555 h -0.51815 v 3.252174 h -1.62608 v -8.229653 h 2.34818 q 1.5875,0 2.27652,0.562241 0.69453,0.56224 0.69453,1.830036 0,0.848873 -0.41341,1.350479 -0.41341,0.501606 -1.19063,0.600825 z m -2.08911,-2.976565 v 2.243448 h 0.76619 q 0.66698,0 0.95361,-0.259071 0.29214,-0.264584 0.29214,-0.865409 0,-0.600825 -0.28663,-0.859897 -0.28663,-0.259071 -0.95912,-0.259071 z"
         style="font-style:normal;font-variant:normal;font-weight:bold;font-stretch:normal;font-size:11.2889px;line-height:1.25;font-family:'DejaVu Sans Mono';-inkscape-font-specification:'DejaVu Sans Mono Bold';white-space:pre;shape-inside:url(#rect12);fill:#000000;fill-opacity:1;stroke:none"
         id="path73"
         transform="matrix(3.8580089,0,0,3.8580089,562.23274,-379.60789)" />
      <path
         d="m -141.52283,67.725526 q -0.57878,0 -0.90951,0.512631 -0.33073,0.507118 -0.33073,1.416624 0,0.909506 0.33073,1.422137 0.33073,0.507119 0.90951,0.507119 0.58429,0 0.91502,-0.507119 0.33073,-0.512631 0.33073,-1.422137 0,-0.909506 -0.33073,-1.416624 -0.33073,-0.512631 -0.91502,-0.512631 z m -2.8553,1.929255 q 0,-1.493795 0.7717,-2.364716 0.77722,-0.876433 2.0836,-0.876433 1.31189,0 2.0836,0.876433 0.77721,0.870921 0.77721,2.364716 0,1.493795 -0.77721,2.370228 -0.77171,0.870921 -2.0836,0.870921 -1.30638,0 -2.0836,-0.870921 -0.7717,-0.876433 -0.7717,-2.370228 z"
         style="font-style:normal;font-variant:normal;font-weight:bold;font-stretch:normal;font-size:11.2889px;line-height:1.25;font-family:'DejaVu Sans Mono';-inkscape-font-specification:'DejaVu Sans Mono Bold';white-space:pre;shape-inside:url(#rect12);fill:#000000;fill-opacity:1;stroke:none"
         id="path75"
         transform="matrix(3.8580089,0,0,3.8580089,562.23274,-379.60789)" />
      <path
         d="M -137.23988,70.580824 V 66.56246 h 1.61506 v 3.770317 q 0,0.666971 0.18741,0.953603 0.18742,0.286632 0.62288,0.286632 0.43546,0 0.67799,-0.385851 0.24805,-0.385851 0.24805,-1.080383 V 66.56246 h 1.61506 v 6.173618 h -1.61506 V 71.82106 q -0.17088,0.51263 -0.58429,0.79375 -0.4079,0.28112 -0.98667,0.28112 -0.88195,0 -1.33395,-0.584288 -0.44648,-0.584289 -0.44648,-1.730818 z"
         style="font-style:normal;font-variant:normal;font-weight:bold;font-stretch:normal;font-size:11.2889px;line-height:1.25;font-family:'DejaVu Sans Mono';-inkscape-font-specification:'DejaVu Sans Mono Bold';white-space:pre;shape-inside:url(#rect12);fill:#000000;fill-opacity:1;stroke:none"
         id="path77"
         transform="matrix(3.8580089,0,0,3.8580089,562.23274,-379.60789)" />
      <path
         d="m -127.52195,64.809594 v 1.752866 h 2.11116 v 1.240236 h -2.11116 v 2.921444 q 0,0.413412 0.19844,0.595313 0.20395,0.176389 0.67248,0.176389 h 1.24024 v 1.240236 h -1.35599 q -1.38907,0 -1.87965,-0.440973 -0.49058,-0.446485 -0.49058,-1.648135 v -2.844274 h -1.57648 V 66.56246 h 1.57648 v -1.752866 z"
         style="font-style:normal;font-variant:normal;font-weight:bold;font-stretch:normal;font-size:11.2889px;line-height:1.25;font-family:'DejaVu Sans Mono';-inkscape-font-specification:'DejaVu Sans Mono Bold';white-space:pre;shape-inside:url(#rect12);fill:#000000;fill-opacity:1;stroke:none"
         id="path79"
         transform="matrix(3.8580089,0,0,3.8580089,562.23274,-379.60789)" />
      <path
         d="m -118.45445,72.432909 q -0.56224,0.231511 -1.14653,0.347266 -0.58429,0.115755 -1.23472,0.115755 -1.54892,0 -2.37023,-0.826823 -0.8158,-0.832336 -0.8158,-2.392277 0,-1.510331 0.78824,-2.386765 0.78824,-0.876433 2.14974,-0.876433 1.37253,0 2.1277,0.8158 0.76067,0.810287 0.76067,2.287545 v 0.655947 h -4.18372 q 0.006,0.727605 0.42994,1.085895 0.42444,0.358291 1.2678,0.358291 0.55673,0 1.09692,-0.159853 0.54019,-0.159852 1.12999,-0.507118 z m -1.36701,-3.47266 q -0.011,-0.63941 -0.33073,-0.964627 -0.3142,-0.33073 -0.93156,-0.33073 -0.55673,0 -0.88746,0.341754 -0.33072,0.336242 -0.39136,0.959116 z"
         style="font-style:normal;font-variant:normal;font-weight:bold;font-stretch:normal;font-size:11.2889px;line-height:1.25;font-family:'DejaVu Sans Mono';-inkscape-font-specification:'DejaVu Sans Mono Bold';white-space:pre;shape-inside:url(#rect12);fill:#000000;fill-opacity:1;stroke:none"
         id="path81"
         transform="matrix(3.8580089,0,0,3.8580089,562.23274,-379.60789)" />
      <path
         d="m -106.48755,68.850006 q 0.24254,0.04961 0.41893,0.231511 0.1819,0.176389 0.44097,0.694532 l 1.48828,2.960029 h -1.78594 l -0.99219,-2.078084 q -0.0441,-0.08819 -0.11575,-0.242535 -0.43546,-0.931555 -1.02526,-0.931555 h -0.51815 v 3.252174 h -1.62608 v -8.229653 h 2.34818 q 1.5875,0 2.27652,0.562241 0.69453,0.56224 0.69453,1.830036 0,0.848873 -0.41341,1.350479 -0.41341,0.501606 -1.19063,0.600825 z m -2.08911,-2.976565 v 2.243448 h 0.76619 q 0.66698,0 0.95361,-0.259071 0.29214,-0.264584 0.29214,-0.865409 0,-0.600825 -0.28663,-0.859897 -0.28663,-0.259071 -0.95912,-0.259071 z"
         style="font-style:normal;font-variant:normal;font-weight:bold;font-stretch:normal;font-size:11.2889px;line-height:1.25;font-family:'DejaVu Sans Mono';-inkscape-font-specification:'DejaVu Sans Mono Bold';white-space:pre;shape-inside:url(#rect12);fill:#000000;fill-opacity:1;stroke:none"
         id="path83"
         transform="matrix(3.8580089,0,0,3.8580089,562.23274,-379.60789)" />
      <path
         d="m -98.064975,72.432909 q -0.56224,0.231511 -1.146529,0.347266 -0.584289,0.115755 -1.234726,0.115755 -1.54891,0 -2.37023,-0.826823 -0.8158,-0.832336 -0.8158,-2.392277 0,-1.510331 0.78824,-2.386765 0.78824,-0.876433 2.14975,-0.876433 1.372523,0 2.127688,0.8158 0.760678,0.810287 0.760678,2.287545 v 0.655947 h -4.183726 q 0.006,0.727605 0.42995,1.085895 0.42443,0.358291 1.26779,0.358291 0.556731,0 1.096922,-0.159853 0.540192,-0.159852 1.129993,-0.507118 z m -1.367016,-3.47266 q -0.01102,-0.63941 -0.330729,-0.964627 -0.31419,-0.33073 -0.93155,-0.33073 -0.55673,0 -0.88746,0.341754 -0.33073,0.336242 -0.39137,0.959116 z"
         style="font-style:normal;font-variant:normal;font-weight:bold;font-stretch:normal;font-size:11.2889px;line-height:1.25;font-family:'DejaVu Sans Mono';-inkscape-font-specification:'DejaVu Sans Mono Bold';white-space:pre;shape-inside:url(#rect12);fill:#000000;fill-opacity:1;stroke:none"
         id="path85"
         transform="matrix(3.8580089,0,0,3.8580089,562.23274,-379.60789)" />
      <path
         d="m -91.49448,72.421885 q -0.4079,0.237023 -0.876433,0.352778 -0.468534,0.121267 -1.008725,0.121267 -1.427649,0 -2.232425,-0.859896 -0.804775,-0.859897 -0.804775,-2.381253 0,-1.526868 0.810288,-2.386764 0.810287,-0.865409 2.237936,-0.865409 0.496094,0 0.953603,0.115755 0.463022,0.115756 0.920531,0.358291 v 1.477258 q -0.352778,-0.303169 -0.777215,-0.463021 -0.418924,-0.165365 -0.870921,-0.165365 -0.788238,0 -1.212674,0.501606 -0.424437,0.501607 -0.424437,1.427649 0,0.926043 0.424437,1.422137 0.424436,0.496094 1.212674,0.496094 0.468534,0 0.876434,-0.15434 0.407899,-0.159853 0.771702,-0.479558 z"
         style="font-style:normal;font-variant:normal;font-weight:bold;font-stretch:normal;font-size:11.2889px;line-height:1.25;font-family:'DejaVu Sans Mono';-inkscape-font-specification:'DejaVu Sans Mono Bold';white-space:pre;shape-inside:url(#rect12);fill:#000000;fill-opacity:1;stroke:none"
         id="path87"
         transform="matrix(3.8580089,0,0,3.8580089,562.23274,-379.60789)" />
      <path
         d="m -87.150897,67.725526 q -0.578777,0 -0.909506,0.512631 -0.33073,0.507118 -0.33073,1.416624 0,0.909506 0.33073,1.422137 0.330729,0.507119 0.909506,0.507119 0.584289,0 0.915018,-0.507119 0.33073,-0.512631 0.33073,-1.422137 0,-0.909506 -0.33073,-1.416624 -0.330729,-0.512631 -0.915018,-0.512631 z m -2.855298,1.929255 q 0,-1.493795 0.771702,-2.364716 0.777214,-0.876433 2.083596,-0.876433 1.311894,0 2.083596,0.876433 0.777214,0.870921 0.777214,2.364716 0,1.493795 -0.777214,2.370228 -0.771702,0.870921 -2.083596,0.870921 -1.306382,0 -2.083596,-0.870921 -0.771702,-0.876433 -0.771702,-2.370228 z"
         style="font-style:normal;font-variant:normal;font-weight:bold;font-stretch:normal;font-size:11.2889px;line-height:1.25;font-family:'DejaVu Sans Mono';-inkscape-font-specification:'DejaVu Sans Mono Bold';white-space:pre;shape-inside:url(#rect12);fill:#000000;fill-opacity:1;stroke:none"
         id="path89"
         transform="matrix(3.8580089,0,0,3.8580089,562.23274,-379.60789)" />
      <path
         d="m -77.405407,68.265717 q -0.264583,-0.242535 -0.622873,-0.363802 -0.352779,-0.121268 -0.777215,-0.121268 -0.51263,0 -0.898482,0.181902 -0.380338,0.176389 -0.589801,0.518143 -0.132291,0.209462 -0.187413,0.507118 -0.04961,0.297657 -0.04961,0.903994 v 2.844274 h -1.615063 V 66.56246 h 1.615063 v 0.959116 q 0.237022,-0.529167 0.727605,-0.815799 0.490582,-0.292145 1.146529,-0.292145 0.330729,0 0.644922,0.08268 0.319705,0.07717 0.606337,0.23151 z"
         style="font-style:normal;font-variant:normal;font-weight:bold;font-stretch:normal;font-size:11.2889px;line-height:1.25;font-family:'DejaVu Sans Mono';-inkscape-font-specification:'DejaVu Sans Mono Bold';white-space:pre;shape-inside:url(#rect12);fill:#000000;fill-opacity:1;stroke:none"
         id="path91"
         transform="matrix(3.8580089,0,0,3.8580089,562.23274,-379.60789)" />
      <path
         d="m -72.59329,67.438894 v -3.279735 h 1.60955 v 8.576919 h -1.60955 V 71.82106 q -0.259071,0.534679 -0.672483,0.804775 -0.4079,0.270095 -0.964628,0.270095 -1.058334,0 -1.642623,-0.848872 -0.584289,-0.848872 -0.584289,-2.392277 0,-1.565453 0.589801,-2.403301 0.595313,-0.837848 1.692233,-0.837848 0.496094,0 0.887457,0.259072 0.396875,0.253559 0.694532,0.76619 z m -2.248961,2.226912 q 0,0.892969 0.297657,1.400088 0.297656,0.507118 0.821312,0.507118 0.523655,0 0.826823,-0.507118 0.303169,-0.507119 0.303169,-1.400088 0,-0.89297 -0.303169,-1.400089 -0.303168,-0.507118 -0.826823,-0.507118 -0.523656,0 -0.821312,0.507118 -0.297657,0.507119 -0.297657,1.400089 z"
         style="font-style:normal;font-variant:normal;font-weight:bold;font-stretch:normal;font-size:11.2889px;line-height:1.25;font-family:'DejaVu Sans Mono';-inkscape-font-specification:'DejaVu Sans Mono Bold';white-space:pre;shape-inside:url(#rect12);fill:#000000;fill-opacity:1;stroke:none"
         id="path93"
         transform="matrix(3.8580089,0,0,3.8580089,562.23274,-379.60789)" />
      <path
         id="path96"
         style="font-style:normal;font-variant:normal;font-weight:normal;font-stretch:normal;font-size:11.2889px;line-height:1.25;font-family:'DejaVu Sans Mono';-inkscape-font-specification:'DejaVu Sans Mono';white-space:pre;fill:#000000;fill-opacity:1;stroke:none;stroke-width:1.56071"
         d="m 67.25599,-94.548707 h 2.32278 l 2.219554,6.538208 2.236753,-6.538208 h 2.331395 v 12.844137 h -1.608753 v -11.347231 l -2.288366,6.770486 h -1.316244 l -2.296981,-6.770486 V -81.70457 H 67.25599 Z" />
      <path
         id="path98"
         style="font-style:normal;font-variant:normal;font-weight:normal;font-stretch:normal;font-size:11.2889px;line-height:1.25;font-family:'DejaVu Sans Mono';-inkscape-font-specification:'DejaVu Sans Mono';white-space:pre;fill:#000000;fill-opacity:1;stroke:none;stroke-width:1.56071"
         d="m 86.689957,-86.91793 v 0.774261 h -6.856514 v 0.05161 q 0,1.574331 0.817268,2.434622 0.825883,0.86029 2.322779,0.86029 0.757056,0 1.582939,-0.240882 0.825883,-0.24088 1.763592,-0.731246 v 1.574332 q -0.903295,0.369925 -1.746393,0.550585 -0.834467,0.189263 -1.617337,0.189263 -2.245352,0 -3.509983,-1.342052 -1.264632,-1.350656 -1.264632,-3.716455 0,-2.305577 1.238817,-3.682042 1.238817,-1.376465 3.303517,-1.376465 1.841019,0 2.899183,1.247421 1.066764,1.247421 1.066764,3.40675 z m -1.582939,-0.464557 q -0.03434,-1.39367 -0.66243,-2.116315 -0.6194,-0.731246 -1.789405,-0.731246 -1.144175,0 -1.884032,0.757056 -0.739841,0.757055 -0.877496,2.099107 z" />
      <path
         id="path100"
         style="font-style:normal;font-variant:normal;font-weight:normal;font-stretch:normal;font-size:11.2889px;line-height:1.25;font-family:'DejaVu Sans Mono';-inkscape-font-specification:'DejaVu Sans Mono';white-space:pre;fill:#000000;fill-opacity:1;stroke:none;stroke-width:1.56071"
         d="m 96.101532,-91.004309 v 1.548522 q -0.679629,-0.395733 -1.367873,-0.593601 -0.688228,-0.197865 -1.40227,-0.197865 -1.075364,0 -1.608738,0.352718 -0.524774,0.344116 -0.524774,1.058158 0,0.645216 0.395735,0.963524 0.395734,0.318308 1.970058,0.61941 l 0.636615,0.12044 q 1.178605,0.223676 1.780806,0.894702 0.610801,0.671027 0.610801,1.74639 0,1.428082 -1.015135,2.236755 -1.015151,0.800069 -2.821756,0.800069 -0.714042,0 -1.496912,-0.154854 -0.782854,-0.146255 -1.694764,-0.447352 v -1.634552 q 0.886096,0.455955 1.694764,0.688233 0.808669,0.223675 1.531326,0.223675 1.049549,0 1.625937,-0.421542 0.576403,-0.430146 0.576403,-1.195804 0,-1.101171 -2.107714,-1.522714 l -0.06883,-0.0172 -0.593602,-0.12044 q -1.367857,-0.26669 -1.995873,-0.894703 -0.628,-0.636614 -0.628,-1.729184 0,-1.385067 0.937708,-2.13352 0.937724,-0.757055 2.675501,-0.757055 0.774271,0 1.488298,0.146254 0.714042,0.13764 1.402286,0.421543 z" />
      <path
         id="path102"
         style="font-style:normal;font-variant:normal;font-weight:normal;font-stretch:normal;font-size:11.2889px;line-height:1.25;font-family:'DejaVu Sans Mono';-inkscape-font-specification:'DejaVu Sans Mono';white-space:pre;fill:#000000;fill-opacity:1;stroke:none;stroke-width:1.56071"
         d="m 106.70891,-91.004309 v 1.548522 q -0.67963,-0.395733 -1.36787,-0.593601 -0.68823,-0.197865 -1.40227,-0.197865 -1.07537,0 -1.60874,0.352718 -0.52477,0.344116 -0.52477,1.058158 0,0.645216 0.39573,0.963524 0.39573,0.318308 1.97006,0.61941 l 0.63661,0.12044 q 1.17861,0.223676 1.78081,0.894702 0.6108,0.671027 0.6108,1.74639 0,1.428082 -1.01513,2.236755 -1.01516,0.800069 -2.82176,0.800069 -0.71404,0 -1.49691,-0.154854 -0.78286,-0.146255 -1.69477,-0.447352 v -1.634552 q 0.8861,0.455955 1.69477,0.688233 0.80868,0.223675 1.53132,0.223675 1.04955,0 1.62594,-0.421542 0.5764,-0.430146 0.5764,-1.195804 0,-1.101171 -2.10771,-1.522714 l -0.0688,-0.0172 -0.5936,-0.12044 q -1.36786,-0.26669 -1.99587,-0.894703 -0.628,-0.636614 -0.628,-1.729184 0,-1.385067 0.93771,-2.13352 0.93772,-0.757055 2.6755,-0.757055 0.77427,0 1.48831,0.146254 0.71403,0.13764 1.40227,0.421543 z" />
      <path
         id="path104"
         style="font-style:normal;font-variant:normal;font-weight:normal;font-stretch:normal;font-size:11.2889px;line-height:1.25;font-family:'DejaVu Sans Mono';-inkscape-font-specification:'DejaVu Sans Mono';white-space:pre;fill:#000000;fill-opacity:1;stroke:none;stroke-width:1.56071"
         d="m 114.98489,-86.548005 h -0.52477 q -1.38507,0 -2.0905,0.490366 -0.69684,0.481762 -0.69684,1.445287 0,0.868893 0.52477,1.350656 0.52479,0.481762 1.4539,0.481762 1.30765,0 2.0561,-0.903305 0.74844,-0.911907 0.75706,-2.512048 v -0.352718 z m 3.07124,-0.65382 v 5.497255 h -1.59152 v -1.428082 q -0.50758,0.860289 -1.28185,1.273229 -0.76565,0.404336 -1.86682,0.404336 -1.47109,0 -2.34859,-0.825878 -0.8775,-0.834481 -0.8775,-2.228152 0,-1.608743 1.07537,-2.443225 1.08396,-0.834481 3.17446,-0.834481 h 2.12493 v -0.249485 q -0.009,-1.152789 -0.58501,-1.668962 -0.5764,-0.524778 -1.84101,-0.524778 -0.80869,0 -1.63456,0.232278 -0.82588,0.232278 -1.60875,0.67963 v -1.582934 q 0.8775,-0.335514 1.67757,-0.49897 0.80868,-0.172057 1.56574,-0.172057 1.1958,0 2.03888,0.352719 0.85168,0.352719 1.37646,1.058157 0.32692,0.430145 0.46456,1.06676 0.13766,0.628012 0.13766,1.89264 z" />
      <path
         id="path106"
         style="font-style:normal;font-variant:normal;font-weight:normal;font-stretch:normal;font-size:11.2889px;line-height:1.25;font-family:'DejaVu Sans Mono';-inkscape-font-specification:'DejaVu Sans Mono';white-space:pre;fill:#000000;fill-opacity:1;stroke:none;stroke-width:1.56071"
         d="m 126.93433,-86.599622 q 0,-1.780802 -0.58499,-2.701313 -0.5764,-0.929113 -1.68618,-0.929113 -1.16139,0 -1.77219,0.929113 -0.61081,0.920511 -0.61081,2.701313 0,1.780801 0.61081,2.718517 0.6194,0.929114 1.78941,0.929114 1.09256,0 1.66896,-0.937716 0.58499,-0.937718 0.58499,-2.709915 z m 1.58294,4.275642 q 0,2.167932 -1.02375,3.28631 -1.02374,1.118378 -3.01101,1.118378 -0.65383,0 -1.36787,-0.12044 -0.71403,-0.120441 -1.42807,-0.352719 v -1.565728 q 0.84308,0.395733 1.53131,0.584997 0.68823,0.189264 1.26463,0.189264 1.28183,0 1.86683,-0.696836 0.58499,-0.696834 0.58499,-2.210945 v -0.06883 -1.075361 q -0.37852,0.808673 -1.03235,1.204406 -0.65381,0.395733 -1.59154,0.395733 -1.68616,0 -2.6927,-1.350656 -1.00653,-1.350656 -1.00653,-3.613219 0,-2.271167 1.00653,-3.621823 1.00654,-1.350656 2.6927,-1.350656 0.92913,0 1.57434,0.369925 0.64522,0.369925 1.04955,1.144186 v -1.247421 h 1.58294 z" />
      <path
         id="path108"
         style="font-style:normal;font-variant:normal;font-weight:normal;font-stretch:normal;font-size:11.2889px;line-height:1.25;font-family:'DejaVu Sans Mono';-inkscape-font-specification:'DejaVu Sans Mono';white-space:pre;fill:#000000;fill-opacity:1;stroke:none;stroke-width:1.56071"
         d="m 139.72685,-86.91793 v 0.774261 h -6.85651 v 0.05161 q 0,1.574331 0.81728,2.434622 0.82587,0.86029 2.32278,0.86029 0.75705,0 1.58294,-0.240882 0.82586,-0.24088 1.76359,-0.731246 v 1.574332 q -0.90331,0.369925 -1.74639,0.550585 -0.83449,0.189263 -1.61736,0.189263 -2.24535,0 -3.50998,-1.342052 -1.26462,-1.350656 -1.26462,-3.716455 0,-2.305577 1.23882,-3.682042 1.23882,-1.376465 3.30352,-1.376465 1.84102,0 2.89917,1.247421 1.06676,1.247421 1.06676,3.40675 z m -1.58294,-0.464557 q -0.0343,-1.39367 -0.66241,-2.116315 -0.61942,-0.731246 -1.78941,-0.731246 -1.14419,0 -1.88403,0.757056 -0.73986,0.757055 -0.8775,2.099107 z" />
      <path
         id="path110"
         style="font-style:normal;font-variant:normal;font-weight:normal;font-stretch:normal;font-size:11.2889px;line-height:1.25;font-family:'DejaVu Sans Mono';-inkscape-font-specification:'DejaVu Sans Mono';white-space:pre;fill:#000000;fill-opacity:1;stroke:none;stroke-width:1.56071"
         d="m 160.41683,-87.674986 v 5.970416 h -1.59154 v -5.970416 q 0,-1.299038 -0.45594,-1.909844 -0.45597,-0.610806 -1.42809,-0.610806 -1.10978,0 -1.71198,0.791466 -0.5936,0.782866 -0.5936,2.253962 v 5.445638 h -1.58294 v -13.386119 h 1.58294 v 5.196154 q 0.42155,-0.825878 1.14419,-1.247421 0.72264,-0.430145 1.71198,-0.430145 1.4711,0 2.19374,0.972128 0.73124,0.963525 0.73124,2.924987 z" />
      <path
         id="path112"
         style="font-style:normal;font-variant:normal;font-weight:normal;font-stretch:normal;font-size:11.2889px;line-height:1.25;font-family:'DejaVu Sans Mono';-inkscape-font-specification:'DejaVu Sans Mono';white-space:pre;fill:#000000;fill-opacity:1;stroke:none;stroke-width:1.56071"
         d="m 168.0218,-86.548005 h -0.52477 q -1.38507,0 -2.09052,0.490366 -0.69682,0.481762 -0.69682,1.445287 0,0.868893 0.52477,1.350656 0.52477,0.481762 1.45388,0.481762 1.30765,0 2.0561,-0.903305 0.74846,-0.911907 0.75706,-2.512048 v -0.352718 z m 3.07124,-0.65382 v 5.497255 h -1.59154 v -1.428082 q -0.50758,0.860289 -1.28183,1.273229 -0.76566,0.404336 -1.86683,0.404336 -1.4711,0 -2.3486,-0.825878 -0.87749,-0.834481 -0.87749,-2.228152 0,-1.608743 1.07536,-2.443225 1.08396,-0.834481 3.17448,-0.834481 h 2.12491 v -0.249485 q -0.009,-1.152789 -0.585,-1.668962 -0.57639,-0.524778 -1.84102,-0.524778 -0.80867,0 -1.63455,0.232278 -0.82589,0.232278 -1.60874,0.67963 v -1.582934 q 0.8775,-0.335514 1.67756,-0.49897 0.80867,-0.172057 1.56573,-0.172057 1.1958,0 2.03888,0.352719 0.8517,0.352719 1.37648,1.058157 0.3269,0.430145 0.46454,1.06676 0.13766,0.628012 0.13766,1.89264 z" />
      <path
         id="path114"
         style="font-style:normal;font-variant:normal;font-weight:normal;font-stretch:normal;font-size:11.2889px;line-height:1.25;font-family:'DejaVu Sans Mono';-inkscape-font-specification:'DejaVu Sans Mono';white-space:pre;fill:#000000;fill-opacity:1;stroke:none;stroke-width:1.56071"
         d="m 181.6316,-87.674986 v 5.970416 h -1.59153 v -5.970416 q 0,-1.299038 -0.45597,-1.909844 -0.45594,-0.610806 -1.42808,-0.610806 -1.10978,0 -1.71198,0.791466 -0.5936,0.782866 -0.5936,2.253962 v 5.445638 h -1.58293 v -9.635253 h 1.58293 v 1.445288 q 0.42155,-0.825878 1.14419,-1.247421 0.72264,-0.430145 1.71198,-0.430145 1.47109,0 2.19374,0.972128 0.73125,0.963525 0.73125,2.924987 z" />
      <path
         id="path116"
         style="font-style:normal;font-variant:normal;font-weight:normal;font-stretch:normal;font-size:11.2889px;line-height:1.25;font-family:'DejaVu Sans Mono';-inkscape-font-specification:'DejaVu Sans Mono';white-space:pre;fill:#000000;fill-opacity:1;stroke:none;stroke-width:1.56071"
         d="m 190.57862,-90.109608 v -4.981081 h 1.58294 v 13.386119 h -1.58294 v -1.213009 q -0.39574,0.714041 -1.05815,1.092568 -0.65383,0.369924 -1.51411,0.369924 -1.7464,0 -2.75293,-1.350654 -0.99794,-1.359259 -0.99794,-3.742264 0,-2.348594 1.00654,-3.682043 1.00653,-1.342053 2.74433,-1.342053 0.86888,0 1.53131,0.378527 0.66243,0.369926 1.04095,1.083966 z m -4.65418,3.596014 q 0,1.841021 0.585,2.778738 0.58501,0.937717 1.7292,0.937717 1.14417,0 1.73777,-0.94632 0.60221,-0.946319 0.60221,-2.770135 0,-1.832418 -0.60221,-2.770135 -0.5936,-0.946319 -1.73777,-0.946319 -1.14419,0 -1.7292,0.937716 -0.585,0.937716 -0.585,2.778738 z" />
      <path
         id="path118"
         style="font-style:normal;font-variant:normal;font-weight:normal;font-stretch:normal;font-size:11.2889px;line-height:1.25;font-family:'DejaVu Sans Mono';-inkscape-font-specification:'DejaVu Sans Mono';white-space:pre;fill:#000000;fill-opacity:1;stroke:none;stroke-width:1.56071"
         d="m 199.30196,-85.197349 q 0,1.066759 0.38712,1.608742 0.39574,0.541983 1.1614,0.541983 h 1.84962 v 1.342054 h -2.00447 q -1.41948,0 -2.20235,-0.911908 -0.77426,-0.911908 -0.77426,-2.580871 v -8.749154 h -2.53786 v -1.238817 h 4.1208 z" />
      <path
         id="path120"
         style="font-style:normal;font-variant:normal;font-weight:normal;font-stretch:normal;font-size:11.2889px;line-height:1.25;font-family:'DejaVu Sans Mono';-inkscape-font-specification:'DejaVu Sans Mono';white-space:pre;fill:#000000;fill-opacity:1;stroke:none;stroke-width:1.56071"
         d="m 206.61443,-91.339823 h 4.05197 v 8.405037 h 3.14006 v 1.230216 h -7.86306 v -1.230216 h 3.14006 v -7.174822 h -2.46903 z m 2.46903,-3.750866 h 1.58294 v 2.004476 h -1.58294 z" />
      <path
         id="path122"
         style="font-style:normal;font-variant:normal;font-weight:normal;font-stretch:normal;font-size:11.2889px;line-height:1.25;font-family:'DejaVu Sans Mono';-inkscape-font-specification:'DejaVu Sans Mono';white-space:pre;fill:#000000;fill-opacity:1;stroke:none;stroke-width:1.56071"
         d="m 224.06112,-87.674986 v 5.970416 h -1.59154 v -5.970416 q 0,-1.299038 -0.45595,-1.909844 -0.45595,-0.610806 -1.42808,-0.610806 -1.10978,0 -1.71198,0.791466 -0.5936,0.782866 -0.5936,2.253962 v 5.445638 h -1.58294 v -9.635253 h 1.58294 v 1.445288 q 0.42154,-0.825878 1.14418,-1.247421 0.72265,-0.430145 1.71198,-0.430145 1.4711,0 2.19374,0.972128 0.73125,0.963525 0.73125,2.924987 z" />
      <path
         id="path124"
         style="font-style:normal;font-variant:normal;font-weight:normal;font-stretch:normal;font-size:11.2889px;line-height:1.25;font-family:'DejaVu Sans Mono';-inkscape-font-specification:'DejaVu Sans Mono';white-space:pre;fill:#000000;fill-opacity:1;stroke:none;stroke-width:1.56071"
         d="m 233.00813,-86.599622 q 0,-1.780802 -0.585,-2.701313 -0.57639,-0.929113 -1.68616,-0.929113 -1.1614,0 -1.7722,0.929113 -0.61081,0.920511 -0.61081,2.701313 0,1.780801 0.61081,2.718517 0.61941,0.929114 1.7894,0.929114 1.09257,0 1.66896,-0.937716 0.585,-0.937718 0.585,-2.709915 z m 1.58294,4.275642 q 0,2.167932 -1.02375,3.28631 -1.02374,1.118378 -3.01102,1.118378 -0.65382,0 -1.36786,-0.12044 -0.71404,-0.120441 -1.42808,-0.352719 v -1.565728 q 0.84309,0.395733 1.53132,0.584997 0.68823,0.189264 1.26462,0.189264 1.28184,0 1.86683,-0.696836 0.585,-0.696834 0.585,-2.210945 v -0.06883 -1.075361 q -0.37853,0.808673 -1.03235,1.204406 -0.65382,0.395733 -1.59153,0.395733 -1.68617,0 -2.69271,-1.350656 -1.00654,-1.350656 -1.00654,-3.613219 0,-2.271167 1.00654,-3.621823 1.00654,-1.350656 2.69271,-1.350656 0.92911,0 1.57433,0.369925 0.64522,0.369925 1.04955,1.144186 v -1.247421 h 1.58294 z" />
      <path
         id="path126"
         style="font-style:normal;font-variant:normal;font-weight:normal;font-stretch:normal;font-size:11.2889px;line-height:1.25;font-family:'DejaVu Sans Mono';-inkscape-font-specification:'DejaVu Sans Mono';white-space:pre;fill:#000000;fill-opacity:1;stroke:none;stroke-width:1.56071"
         d="m 255.21223,-91.004309 v 1.548522 q -0.67963,-0.395733 -1.36786,-0.593601 -0.68823,-0.197865 -1.40227,-0.197865 -1.07536,0 -1.60874,0.352718 -0.52478,0.344116 -0.52478,1.058158 0,0.645216 0.39573,0.963524 0.39574,0.318308 1.97007,0.61941 l 0.63661,0.12044 q 1.1786,0.223676 1.7808,0.894702 0.61081,0.671027 0.61081,1.74639 0,1.428082 -1.01514,2.236755 -1.01515,0.800069 -2.82176,0.800069 -0.71404,0 -1.4969,-0.154854 -0.78286,-0.146255 -1.69477,-0.447352 v -1.634552 q 0.8861,0.455955 1.69477,0.688233 0.80867,0.223675 1.53132,0.223675 1.04955,0 1.62594,-0.421542 0.5764,-0.430146 0.5764,-1.195804 0,-1.101171 -2.10771,-1.522714 l -0.0688,-0.0172 -0.5936,-0.12044 q -1.36786,-0.26669 -1.99587,-0.894703 -0.62802,-0.636614 -0.62802,-1.729184 0,-1.385067 0.93772,-2.13352 0.93772,-0.757055 2.6755,-0.757055 0.77426,0 1.48831,0.146254 0.71404,0.13764 1.40227,0.421543 z" />
      <path
         id="path128"
         style="font-style:normal;font-variant:normal;font-weight:normal;font-stretch:normal;font-size:11.2889px;line-height:1.25;font-family:'DejaVu Sans Mono';-inkscape-font-specification:'DejaVu Sans Mono';white-space:pre;fill:#000000;fill-opacity:1;stroke:none;stroke-width:1.56071"
         d="m 264.83027,-84.801616 q -0.39573,1.006539 -1.00654,2.649695 -0.85168,2.271166 -1.14418,2.770135 -0.39574,0.671026 -0.98934,1.006539 -0.5936,0.335513 -1.38506,0.335513 h -1.27324 v -1.324846 h 0.93772 q 0.69684,0 1.09257,-0.404336 0.39573,-0.404338 1.00654,-2.090507 l -3.72506,-9.4804 h 1.67757 l 2.85616,7.536144 2.81315,-7.536144 h 1.67757 z" />
      <path
         id="path130"
         style="font-style:normal;font-variant:normal;font-weight:normal;font-stretch:normal;font-size:11.2889px;line-height:1.25;font-family:'DejaVu Sans Mono';-inkscape-font-specification:'DejaVu Sans Mono';white-space:pre;fill:#000000;fill-opacity:1;stroke:none;stroke-width:1.56071"
         d="m 276.42699,-91.004309 v 1.548522 q -0.67963,-0.395733 -1.36786,-0.593601 -0.68823,-0.197865 -1.40227,-0.197865 -1.07537,0 -1.60875,0.352718 -0.52477,0.344116 -0.52477,1.058158 0,0.645216 0.39573,0.963524 0.39573,0.318308 1.97006,0.61941 l 0.63662,0.12044 q 1.1786,0.223676 1.7808,0.894702 0.61081,0.671027 0.61081,1.74639 0,1.428082 -1.01515,2.236755 -1.01514,0.800069 -2.82175,0.800069 -0.71404,0 -1.4969,-0.154854 -0.78287,-0.146255 -1.69478,-0.447352 v -1.634552 q 0.8861,0.455955 1.69478,0.688233 0.80867,0.223675 1.53131,0.223675 1.04956,0 1.62595,-0.421542 0.57639,-0.430146 0.57639,-1.195804 0,-1.101171 -2.10771,-1.522714 l -0.0688,-0.0172 -0.5936,-0.12044 q -1.36786,-0.26669 -1.99588,-0.894703 -0.62801,-0.636614 -0.62801,-1.729184 0,-1.385067 0.93772,-2.13352 0.93772,-0.757055 2.6755,-0.757055 0.77426,0 1.4883,0.146254 0.71404,0.13764 1.40228,0.421543 z" />
      <path
         id="path132"
         style="font-style:normal;font-variant:normal;font-weight:normal;font-stretch:normal;font-size:11.2889px;line-height:1.25;font-family:'DejaVu Sans Mono';-inkscape-font-specification:'DejaVu Sans Mono';white-space:pre;fill:#000000;fill-opacity:1;stroke:none;stroke-width:1.56071"
         d="m 283.94593,-94.075546 v 2.735723 h 3.59602 v 1.230215 h -3.59602 v 5.230565 q 0,1.066761 0.40434,1.488304 0.40433,0.421542 1.41087,0.421542 h 1.78081 v 1.264627 h -1.93566 q -1.7808,0 -2.51205,-0.714041 -0.73124,-0.714041 -0.73124,-2.460432 v -5.230565 h -2.57227 v -1.230215 h 2.57227 v -2.735723 z" />
      <path
         id="path134"
         style="font-style:normal;font-variant:normal;font-weight:normal;font-stretch:normal;font-size:11.2889px;line-height:1.25;font-family:'DejaVu Sans Mono';-inkscape-font-specification:'DejaVu Sans Mono';white-space:pre;fill:#000000;fill-opacity:1;stroke:none;stroke-width:1.56071"
         d="m 298.83756,-86.91793 v 0.774261 h -6.85651 v 0.05161 q 0,1.574331 0.81727,2.434622 0.82588,0.86029 2.32279,0.86029 0.75705,0 1.58293,-0.240882 0.82588,-0.24088 1.7636,-0.731246 v 1.574332 q -0.90331,0.369925 -1.74639,0.550585 -0.83448,0.189263 -1.61735,0.189263 -2.24536,0 -3.50998,-1.342052 -1.26463,-1.350656 -1.26463,-3.716455 0,-2.305577 1.23882,-3.682042 1.23882,-1.376465 3.30351,-1.376465 1.84102,0 2.89918,1.247421 1.06676,1.247421 1.06676,3.40675 z m -1.58293,-0.464557 q -0.0344,-1.39367 -0.66243,-2.116315 -0.61941,-0.731246 -1.7894,-0.731246 -1.14419,0 -1.88404,0.757056 -0.73985,0.757055 -0.87749,2.099107 z" />
      <path
         id="path136"
         style="font-style:normal;font-variant:normal;font-weight:normal;font-stretch:normal;font-size:11.2889px;line-height:1.25;font-family:'DejaVu Sans Mono';-inkscape-font-specification:'DejaVu Sans Mono';white-space:pre;fill:#000000;fill-opacity:1;stroke:none;stroke-width:1.56071"
         d="m 305.69408,-90.359091 q 0.2925,-0.61941 0.73985,-0.911908 0.45595,-0.301102 1.09257,-0.301102 1.16139,0 1.63455,0.903305 0.48176,0.894701 0.48176,3.380941 v 5.583285 h -1.44529 v -5.514462 q 0,-2.038888 -0.23227,-2.529253 -0.22368,-0.498968 -0.82588,-0.498968 -0.68824,0 -0.94632,0.533378 -0.24949,0.524778 -0.24949,2.494843 v 5.514462 h -1.44528 v -5.514462 q 0,-2.064697 -0.24949,-2.54646 -0.24088,-0.481761 -0.87749,-0.481761 -0.62802,0 -0.8775,0.533378 -0.24088,0.524778 -0.24088,2.494843 v 5.514462 h -1.43669 v -9.635253 h 1.43669 v 0.82588 q 0.28389,-0.516175 0.70544,-0.782866 0.43014,-0.275292 0.97212,-0.275292 0.65382,0 1.08397,0.301102 0.43875,0.301101 0.67963,0.911908 z" />
    </g>
  </g>
</svg>
